<svg width="100%" height="100%" viewBox="0 0 2000 1300" version="1.1" xmlns="http://www.w3.org/2000/svg" xmlns:xlink="http://www.w3.org/1999/xlink" xml:space="preserve" style="fill-rule:evenodd;clip-rule:evenodd;stroke-linecap:round;stroke-linejoin:round;stroke-miterlimit:1.5;"><path d="M-0.242,45.87l58.3,75.681l45.204,-46.606l115.184,98.548l47.171,-88.716l174.019,73.727l19.217,-64.67l157.067,102.175l45.248,-83.843l50.43,57.397l55.076,-59.264l61.182,61.656l76.957,-111.315l134.138,117.322l48.981,-67.882l80.89,82.674l80.006,-127.01l100.09,95.683l94.763,-49.397l100.629,54.733l65.043,-45.168l95.31,40.795l70.41,-45.562l66.533,30.67l59.461,-46.786l69.455,49.472l62.708,-48.411l-27.608,-108.775l-2021.38,-4.495l15.514,57.367Z" style="fill:#fff;stroke:#000;stroke-width:1px;"/>
<text class="Contenu" x="50" y="50"
        font-family="Verdana"
        font-size="20" >

  </text>
</svg>
