<?xml version="1.0" encoding="UTF-8" standalone="no"?>
<!DOCTYPE svg PUBLIC "-//W3C//DTD SVG 1.1//EN" "http://www.w3.org/Graphics/SVG/1.1/DTD/svg11.dtd">
<svg width="100%" height="100%" viewBox="0 0 414 736" version="1.1" xmlns="http://www.w3.org/2000/svg" xmlns:xlink="http://www.w3.org/1999/xlink" xml:space="preserve" style="fill-rule:evenodd;clip-rule:evenodd;stroke-linejoin:round;stroke-miterlimit:1.41421;">
    <g transform="matrix(0.333333,0,0,0.333333,0,0)">
        <rect id="Plan-de-travail1" x="0" y="0" width="1242" height="2208" style="fill:none;"/>
        <clipPath id="_clip1">
            <rect id="Plan-de-travail11" x="0" y="0" width="1242" height="2208"/>
        </clipPath>
        <g clip-path="url(#_clip1)">
            <g transform="matrix(1.00873,0,0,1.08702,-4.17906,-14.8202)">
                <rect x="2.955" y="1.811" width="1236.22" height="2044.62" style="fill:rgb(214,39,0);"/>
            </g>
            <g transform="matrix(1,0,0,1,-82.9605,77.7101)">
                <ellipse cx="701.145" cy="927.393" rx="566.992" ry="593.427" style="fill:rgb(239,194,45);"/>
            </g>
            <g transform="matrix(3.54032,0,0,4.10068,50.5458,-140.489)">
                <rect x="67.251" y="297.665" width="17.462" height="19.842" style="fill-rule:nonzero;"/>
            </g>
            <g transform="matrix(3.54032,0,0,4.10068,50.5458,-140.489)">
                <rect x="240.281" y="297.665" width="17.462" height="19.842" style="fill-rule:nonzero;"/>
            </g>
            <g transform="matrix(3.54032,0,0,4.10068,50.5458,-140.489)">
                <path d="M123.348,333.752C123.348,338.574 119.44,342.482 114.618,342.482L83.268,342.482C78.446,342.482 74.537,338.574 74.537,333.752L74.537,280.973C74.537,276.151 78.446,272.242 83.268,272.242L114.618,272.242C119.44,272.242 123.348,276.151 123.348,280.973L123.348,333.752Z" style="fill:rgb(0,153,112);fill-rule:nonzero;"/>
            </g>
            <g transform="matrix(3.54032,0,0,4.10068,50.5458,-140.489)">
                <path d="M249.94,333.752C249.94,338.574 246.031,342.482 241.209,342.482L209.859,342.482C205.038,342.482 201.128,338.574 201.128,333.752L201.128,280.973C201.128,276.151 205.038,272.242 209.859,272.242L241.209,272.242C246.031,272.242 249.94,276.151 249.94,280.973L249.94,333.752Z" style="fill:rgb(0,153,112);fill-rule:nonzero;"/>
            </g>
            <g transform="matrix(3.54032,0,0,4.10068,50.5458,-140.489)">
                <path d="M109.401,303.665C109.401,308.487 105.492,312.396 100.671,312.396L79.144,312.396C74.322,312.396 70.413,308.487 70.413,303.665L70.413,277.008C70.413,272.186 74.322,268.277 79.144,268.277L100.671,268.277C105.492,268.277 109.401,272.186 109.401,277.008L109.401,303.665Z" style="fill:rgb(0,201,148);fill-rule:nonzero;"/>
            </g>
            <g transform="matrix(3.54032,0,0,4.10068,50.5458,-140.489)">
                <path d="M254.581,303.665C254.581,308.487 250.672,312.396 245.85,312.396L224.323,312.396C219.502,312.396 215.593,308.487 215.593,303.665L215.593,277.008C215.593,272.186 219.502,268.277 224.323,268.277L245.85,268.277C250.672,268.277 254.581,272.186 254.581,277.008L254.581,303.665Z" style="fill:rgb(0,201,148);fill-rule:nonzero;"/>
            </g>
            <g transform="matrix(3.54032,0,0,4.10068,50.5458,-140.489)">
                <path d="M228.571,365.894C228.571,381.237 216.133,393.674 200.791,393.674L124.203,393.674C108.861,393.674 96.423,381.237 96.423,365.894L96.423,242.877C96.423,227.535 108.861,215.097 124.203,215.097L200.791,215.097C216.133,215.097 228.571,227.535 228.571,242.877L228.571,365.894Z" style="fill:rgb(0,166,121);fill-rule:nonzero;"/>
            </g>
            <g transform="matrix(3.54032,0,0,4.10068,50.5458,-140.489)">
                <path d="M200.791,215.097L191.28,215.097L191.28,393.674L200.791,393.674C216.133,393.674 228.571,381.237 228.571,365.894L228.571,242.877C228.571,227.535 216.133,215.097 200.791,215.097" style="fill:rgb(0,120,86);fill-rule:nonzero;"/>
            </g>
            <g transform="matrix(3.54032,0,0,4.10068,50.5458,-140.489)">
                <path d="M214.474,368.645C214.474,380.715 204.69,390.499 192.621,390.499L132.372,390.499C120.304,390.499 110.519,380.715 110.519,368.645L110.519,271.874C110.519,259.804 120.304,250.02 132.372,250.02L192.621,250.02C204.69,250.02 214.474,259.804 214.474,271.874L214.474,368.645Z" style="fill:rgb(0,189,138);fill-rule:nonzero;"/>
            </g>
            <g transform="matrix(3.54032,0,0,4.10068,50.5458,-140.489)">
                <path d="M244.643,207.557C244.643,212.379 240.734,216.287 235.912,216.287L89.082,216.287C84.26,216.287 80.351,212.379 80.351,207.557L80.351,169.065C80.351,164.243 84.26,160.334 89.082,160.334L235.912,160.334C240.734,160.334 244.643,164.243 244.643,169.065L244.643,207.557Z" style="fill:rgb(255,98,0);fill-rule:nonzero;"/>
            </g>
            <g transform="matrix(3.54032,0,0,4.10068,50.5458,-140.489)">
                <path d="M80.352,200.811L80.352,207.557C80.352,212.378 84.26,216.287 89.082,216.287L235.913,216.287C240.734,216.287 244.644,212.378 244.644,207.557L244.644,200.811L80.352,200.811Z" style="fill:rgb(201,78,0);fill-rule:nonzero;"/>
            </g>
            <g transform="matrix(3.54032,0,0,4.10068,50.5458,-140.489)">
                <rect x="80.352" y="174.698" width="164.292" height="13.613" style="fill:rgb(255,124,59);fill-rule:nonzero;"/>
            </g>
            <g transform="matrix(3.54032,0,0,4.10068,50.5458,-140.489)">
                <rect x="121.713" y="158.495" width="13.852" height="58.996" style="fill-rule:nonzero;"/>
            </g>
            <g transform="matrix(3.54032,0,0,4.10068,50.5458,-140.489)">
                <rect x="189.43" y="158.495" width="13.851" height="58.996" style="fill-rule:nonzero;"/>
            </g>
            <g transform="matrix(3.54032,0,0,4.10068,50.5458,-140.489)">
                <path d="M195.585,368.303C195.585,373.125 191.677,377.034 186.855,377.034L138.139,377.034C133.317,377.034 129.408,373.125 129.408,368.303L129.408,318.562C129.408,313.74 133.317,309.831 138.139,309.831L186.855,309.831C191.677,309.831 195.585,313.74 195.585,318.562L195.585,368.303Z" style="fill:rgb(23,207,158);fill-rule:nonzero;"/>
            </g>
            <g transform="matrix(3.54032,0,0,4.10068,50.5458,-140.489)">
                <path d="M183.273,363.629C183.273,365.442 180.819,366.912 177.792,366.912L147.203,366.912C144.175,366.912 141.72,365.442 141.72,363.629L141.72,344.927C141.72,343.114 144.175,341.645 147.203,341.645L177.792,341.645C180.819,341.645 183.273,343.114 183.273,344.927L183.273,363.629Z" style="fill:rgb(33,219,170);fill-rule:nonzero;"/>
            </g>
            <g transform="matrix(3.54032,0,0,4.10068,50.5458,-140.489)">
                <path d="M185.839,348.91C185.839,350.946 183.082,352.597 179.68,352.597L145.315,352.597C141.914,352.597 139.156,350.946 139.156,348.91L139.156,327.898C139.156,325.861 141.914,324.21 145.315,324.21L179.68,324.21C183.082,324.21 185.839,325.861 185.839,327.898L185.839,348.91Z" style="fill:rgb(66,237,192);fill-rule:nonzero;"/>
            </g>
            <g transform="matrix(3.54032,0,0,4.10068,50.5458,-140.489)">
                <rect x="121.045" y="182.576" width="15.834" height="15.833" style="fill-rule:nonzero;"/>
            </g>
            <g transform="matrix(3.54032,0,0,4.10068,50.5458,-140.489)">
                <rect x="123.555" y="185.085" width="10.815" height="10.815" style="fill:rgb(83,83,83);fill-rule:nonzero;"/>
            </g>
            <g transform="matrix(3.54032,0,0,4.10068,50.5458,-140.489)">
                <rect x="188.115" y="182.576" width="15.833" height="15.833" style="fill-rule:nonzero;"/>
            </g>
            <g transform="matrix(3.54032,0,0,4.10068,50.5458,-140.489)">
                <rect x="190.623" y="185.085" width="10.816" height="10.815" style="fill:rgb(83,83,83);fill-rule:nonzero;"/>
            </g>
            <g transform="matrix(3.54032,0,0,4.10068,50.5458,-140.489)">
                <rect x="158.925" y="355.209" width="7.144" height="9.524" style="fill-rule:nonzero;"/>
            </g>
            <g transform="matrix(3.54032,0,0,4.10068,50.5458,-140.489)">
                <rect x="156.855" y="346.767" width="11.286" height="11.287" style="fill-rule:nonzero;"/>
            </g>
            <g transform="matrix(3.54032,0,0,4.10068,50.5458,-140.489)">
                <rect x="158.643" y="348.556" width="7.709" height="7.71" style="fill:rgb(83,83,83);fill-rule:nonzero;"/>
            </g>
            <g transform="matrix(3.54032,0,0,4.10068,50.5458,-140.489)">
                <rect x="116.859" y="215.118" width="8.731" height="178.586" style="fill-rule:nonzero;"/>
            </g>
            <g transform="matrix(3.54032,0,0,4.10068,50.5458,-140.489)">
                <rect x="199.406" y="215.118" width="8.73" height="178.586" style="fill-rule:nonzero;"/>
            </g>
            <g transform="matrix(3.54032,0,0,4.10068,50.5458,-140.489)">
                <rect x="113.562" y="281.969" width="18.692" height="18.692" style="fill-rule:nonzero;"/>
            </g>
            <g transform="matrix(3.54032,0,0,4.10068,50.5458,-140.489)">
                <rect x="116.523" y="284.93" width="12.769" height="12.769" style="fill:rgb(83,83,83);fill-rule:nonzero;"/>
            </g>
            <g transform="matrix(3.54032,0,0,4.10068,50.5458,-140.489)">
                <rect x="192.74" y="281.969" width="18.692" height="18.692" style="fill-rule:nonzero;"/>
            </g>
            <g transform="matrix(3.54032,0,0,4.10068,50.5458,-140.489)">
                <rect x="195.701" y="284.93" width="12.768" height="12.769" style="fill:rgb(83,83,83);fill-rule:nonzero;"/>
            </g>
        </g>
    </g>
</svg>
